HIERARCHY
ROOT Hips
{
  OFFSET 0.0502701 92.146 0
  CHANNELS 6 Xposition Yposition Zposition Zrotation Xrotation Yrotation
  JOINT Bip01_Pelvis
  {
    OFFSET 0 0 0
    CHANNELS 6 Xposition Yposition Zposition Zrotation Xrotation Yrotation
    JOINT BN_Tai_01
    {
      OFFSET -4.6544 -2.06234 0
      CHANNELS 6 Xposition Yposition Zposition Zrotation Xrotation Yrotation
      JOINT BN_Tai_R_01
      {
        OFFSET 10.2279 -0.119812 3.68897
        CHANNELS 6 Xposition Yposition Zposition Zrotation Xrotation Yrotation
        JOINT BN_Tai_R_02
        {
          OFFSET 15.0421 0 1.52588e-005
          CHANNELS 6 Xposition Yposition Zposition Zrotation Xrotation Yrotation
          End Site
          {
            OFFSET 0 0 0
          }
        }
      }
      JOINT BN_Tai_L_01
      {
        OFFSET 10.2279 -0.119797 -3.68907
        CHANNELS 6 Xposition Yposition Zposition Zrotation Xrotation Yrotation
        JOINT BN_Tai_L_02
        {
          OFFSET 15.0421 0 0
          CHANNELS 6 Xposition Yposition Zposition Zrotation Xrotation Yrotation
          End Site
          {
            OFFSET 0 0 0
          }
        }
      }
    }
    JOINT Bip01_Spine
    {
      OFFSET 2.7319 1.49192 0
      CHANNELS 6 Xposition Yposition Zposition Zrotation Xrotation Yrotation
      JOINT Bip01_R_Thigh
      {
        OFFSET -2.85206 -1.24717 -6.20578
        CHANNELS 6 Xposition Yposition Zposition Zrotation Xrotation Yrotation
        JOINT Bip01_R_Calf
        {
          OFFSET 6.73247 0 0
          CHANNELS 6 Xposition Yposition Zposition Zrotation Xrotation Yrotation
          JOINT Bip01_R_HorseLink
          {
            OFFSET 8.08523 0 0
            CHANNELS 6 Xposition Yposition Zposition Zrotation Xrotation Yrotation
            JOINT Bip01_R_Foot
            {
              OFFSET 8.97518 0 0
              CHANNELS 6 Xposition Yposition Zposition Zrotation Xrotation Yrotation
              JOINT BN_Toe_R_30
              {
                OFFSET 1.58762 -0.234982 -0.295153
                CHANNELS 6 Xposition Yposition Zposition Zrotation Xrotation Yrotation
                JOINT BN_Toe_R_31
                {
                  OFFSET 3.03849 0 0
                  CHANNELS 6 Xposition Yposition Zposition Zrotation Xrotation Yrotation
                  End Site
                  {
                    OFFSET 0 0 0
                  }
                }
              }
              JOINT BN_Toe_R_00
              {
                OFFSET 1.65463 0.933666 1.02414
                CHANNELS 6 Xposition Yposition Zposition Zrotation Xrotation Yrotation
                JOINT BN_Toe_R_01
                {
                  OFFSET 3.51775 0 0
                  CHANNELS 6 Xposition Yposition Zposition Zrotation Xrotation Yrotation
                  End Site
                  {
                    OFFSET 0 0 0
                  }
                }
              }
              JOINT BN_Toe_R_20
              {
                OFFSET 1.47309 1.0106 -1.16708
                CHANNELS 6 Xposition Yposition Zposition Zrotation Xrotation Yrotation
                JOINT BN_Toe_R_21
                {
                  OFFSET 3.94896 0 0
                  CHANNELS 6 Xposition Yposition Zposition Zrotation Xrotation Yrotation
                  End Site
                  {
                    OFFSET 0 0 0
                  }
                }
              }
              JOINT BN_Toe_R_10
              {
                OFFSET 1.07522 1.64225 0.0223596
                CHANNELS 6 Xposition Yposition Zposition Zrotation Xrotation Yrotation
                JOINT BN_Toe_R_11
                {
                  OFFSET 4.09655 0 0
                  CHANNELS 6 Xposition Yposition Zposition Zrotation Xrotation Yrotation
                  End Site
                  {
                    OFFSET 0 0 0
                  }
                }
              }
              JOINT Bip01_R_Toe0
              {
                OFFSET 2.04238 1.88275 0
                CHANNELS 6 Xposition Yposition Zposition Zrotation Xrotation Yrotation
                End Site
                {
                  OFFSET 0 0 0
                }
              }
            }
          }
        }
      }
      JOINT Bip01_L_Thigh
      {
        OFFSET -2.85154 -1.24849 6.20577
        CHANNELS 6 Xposition Yposition Zposition Zrotation Xrotation Yrotation
        JOINT Bip01_L_Calf
        {
          OFFSET 6.73247 0 0
          CHANNELS 6 Xposition Yposition Zposition Zrotation Xrotation Yrotation
          JOINT Bip01_L_HorseLink
          {
            OFFSET 8.08524 0 0
            CHANNELS 6 Xposition Yposition Zposition Zrotation Xrotation Yrotation
            JOINT Bip01_L_Foot
            {
              OFFSET 8.97521 0 0
              CHANNELS 6 Xposition Yposition Zposition Zrotation Xrotation Yrotation
              JOINT BN_Toe_L_00
              {
                OFFSET 1.65461 0.933701 -1.02419
                CHANNELS 6 Xposition Yposition Zposition Zrotation Xrotation Yrotation
                JOINT BN_Toe_L_01
                {
                  OFFSET 3.51778 0 0
                  CHANNELS 6 Xposition Yposition Zposition Zrotation Xrotation Yrotation
                  End Site
                  {
                    OFFSET 0 0 0
                  }
                }
              }
              JOINT BN_Toe_L_10
              {
                OFFSET 1.07523 1.6422 -0.0221281
                CHANNELS 6 Xposition Yposition Zposition Zrotation Xrotation Yrotation
                JOINT BN_Toe_L_11
                {
                  OFFSET 4.09657 0 0
                  CHANNELS 6 Xposition Yposition Zposition Zrotation Xrotation Yrotation
                  End Site
                  {
                    OFFSET 0 0 0
                  }
                }
              }
              JOINT BN_Toe_L_30
              {
                OFFSET 1.58761 -0.234954 0.295135
                CHANNELS 6 Xposition Yposition Zposition Zrotation Xrotation Yrotation
                JOINT BN_Toe_L_31
                {
                  OFFSET 3.03847 0 0
                  CHANNELS 6 Xposition Yposition Zposition Zrotation Xrotation Yrotation
                  End Site
                  {
                    OFFSET 0 0 0
                  }
                }
              }
              JOINT BN_Toe_L_20
              {
                OFFSET 1.4731 1.01055 1.1673
                CHANNELS 6 Xposition Yposition Zposition Zrotation Xrotation Yrotation
                JOINT BN_Toe_L_21
                {
                  OFFSET 3.94897 0 0
                  CHANNELS 6 Xposition Yposition Zposition Zrotation Xrotation Yrotation
                  End Site
                  {
                    OFFSET 0 0 0
                  }
                }
              }
              JOINT Bip01_L_Toe0
              {
                OFFSET 2.04238 1.88276 0
                CHANNELS 6 Xposition Yposition Zposition Zrotation Xrotation Yrotation
                End Site
                {
                  OFFSET 0 0 0
                }
              }
            }
          }
        }
      }
      JOINT Bip01_Spine1
      {
        OFFSET 8.6167 -0.00679016 0
        CHANNELS 6 Xposition Yposition Zposition Zrotation Xrotation Yrotation
        JOINT BN_Wing_R_01
        {
          OFFSET 0.267445 -6.12421 -7.49305
          CHANNELS 6 Xposition Yposition Zposition Zrotation Xrotation Yrotation
          JOINT BN_Wing_R_02
          {
            OFFSET 14.7158 0 0
            CHANNELS 6 Xposition Yposition Zposition Zrotation Xrotation Yrotation
            JOINT BN_Wing_R_03
            {
              OFFSET 19.0858 0 0
              CHANNELS 6 Xposition Yposition Zposition Zrotation Xrotation Yrotation
              JOINT BN_Wing_R_05
              {
                OFFSET 2.68908 -0.270637 0.785261
                CHANNELS 6 Xposition Yposition Zposition Zrotation Xrotation Yrotation
                JOINT BN_Wing_R_06
                {
                  OFFSET 21.1083 0 0
                  CHANNELS 6 Xposition Yposition Zposition Zrotation Xrotation Yrotation
                  End Site
                  {
                    OFFSET 0 0 0
                  }
                }
              }
              JOINT BN_Wing_R_04
              {
                OFFSET 27.642 0 0
                CHANNELS 6 Xposition Yposition Zposition Zrotation Xrotation Yrotation
                End Site
                {
                  OFFSET 0 0 0
                }
              }
            }
          }
        }
        JOINT BN_Wing_L_01
        {
          OFFSET 0.267452 -6.12421 7.49305
          CHANNELS 6 Xposition Yposition Zposition Zrotation Xrotation Yrotation
          JOINT BN_Wing_L_02
          {
            OFFSET 14.7158 0 0
            CHANNELS 6 Xposition Yposition Zposition Zrotation Xrotation Yrotation
            JOINT BN_Wing_L_03
            {
              OFFSET 19.0858 0 0
              CHANNELS 6 Xposition Yposition Zposition Zrotation Xrotation Yrotation
              JOINT BN_Wing_L_05
              {
                OFFSET 2.68908 -0.270635 -0.785254
                CHANNELS 6 Xposition Yposition Zposition Zrotation Xrotation Yrotation
                JOINT BN_Wing_L_06
                {
                  OFFSET 21.1083 0 0
                  CHANNELS 6 Xposition Yposition Zposition Zrotation Xrotation Yrotation
                  End Site
                  {
                    OFFSET 0 0 0
                  }
                }
              }
              JOINT BN_Wing_L_04
              {
                OFFSET 27.642 0 1.14441e-005
                CHANNELS 6 Xposition Yposition Zposition Zrotation Xrotation Yrotation
                End Site
                {
                  OFFSET 0 0 0
                }
              }
            }
          }
        }
        JOINT Bip01_Neck
        {
          OFFSET 7.59958 -1.43237 0
          CHANNELS 6 Xposition Yposition Zposition Zrotation Xrotation Yrotation
          JOINT Bip01_Neck1
          {
            OFFSET 3.64749 -0.00262451 0
            CHANNELS 6 Xposition Yposition Zposition Zrotation Xrotation Yrotation
            JOINT Bip01_Neck2
            {
              OFFSET 3.32331 -0.00284576 0
              CHANNELS 6 Xposition Yposition Zposition Zrotation Xrotation Yrotation
              JOINT Bip01_Head
              {
                OFFSET 4.63256 -0.573471 0
                CHANNELS 6 Xposition Yposition Zposition Zrotation Xrotation Yrotation
                JOINT BN_Jaw
                {
                  OFFSET 1.05386 2.23561 0
                  CHANNELS 6 Xposition Yposition Zposition Zrotation Xrotation Yrotation
                  End Site
                  {
                    OFFSET 0 0 0
                  }
                }
              }
            }
          }
        }
      }
    }
  }
}
MOTION
Frames:	4
Frame Time:	0.0333333
0.011655 99.5484 1.21038e-006 -90.0009 -89.5625 -17.3155 -1.90735e-006 -1.35525e-020 0 -89.9989 18.2129 -89.999 -5.43192 -0.736155 4.45294e-008 -16.4909 0.585127 179.853 10.2263 -0.119101 3.69374 19.8258 81.3615 1.75782 15.0421 0.00709432 0.000825882 4.73262 -4.96755 18.8523 10.2296 -0.120474 -3.68431 -136.809 77.9016 159.628 15.0421 0.00710452 -0.000667572 -4.76095 5.01951 19.3784 2.92077 1.07725 -1.49621e-008 -6.41787 0.0495158 1.05359 6.21884e-009 5.70054e-006 -6.20578 -70.0902 -9.66254 -168.97 6.73248 -5.72205e-006 -1.19209e-007 -49.3452 -3.72935e-006 1.44746e-005 8.08523 -2.13163e-014 1.78814e-007 69.4316 1.10454e-005 1.50556e-006 8.9752 -7.10543e-015 -5.96047e-008 -63.9587 10.4052 -5.67951 1.58766 -0.234975 -0.295145 156.513 -6.50544 172.594 3.03848 -1.19209e-007 0 -73.1224 -0.0143047 0.00434438 1.65464 0.933669 1.02414 40.0482 45.7893 -25.5647 3.51775 1.19209e-007 -8.88178e-016 -6.84956 0.00227309 -0.0190618 1.47313 1.01061 -1.16707 35.126 -22.4668 21.3799 3.94896 -3.55271e-015 -9.53674e-007 -5.67043 -3.67716e-005 0.00045954 1.07524 1.64226 0.0223624 22.043 -4.61935 -4.23765 4.09656 -3.55271e-015 4.2608e-007 8.30561 0.000441536 0.00295496 2.04238 1.88276 -6.22491e-008 52.0755 -9.24895 10.4791 -6.21873e-009 3.8362e-006 6.20578 -109.524 3.35785 178.774 6.73248 -1.90735e-006 0 -85.8325 3.11512e-007 2.25811e-007 8.08523 4.76837e-007 0 57.2705 5.45724e-006 -8.1095e-006 8.97519 0 0 -66.71 -4.68392 -0.595829 1.65463 0.933701 -1.02419 28.1005 -48.6529 16.6369 3.51776 1.5099e-014 2.13163e-014 -3.71075 3.4948e-005 -0.000398379 1.07524 1.6422 -0.0221231 23.1099 -1.10936 3.41137 4.09656 4.76837e-007 2.38419e-007 -0.034466 1.06555e-005 -0.000509787 1.58766 -0.234954 0.295133 161.696 6.19034 -179.867 3.03848 2.38418e-007 1.78814e-007 -61.5889 0.00172616 -0.000922275 1.47313 1.01055 1.1673 27.5075 17.168 -7.82396 3.94897 -2.22044e-016 4.76837e-007 -3.11869 4.16458e-005 -0.000781484 2.04238 1.88276 -2.51417e-007 63.8689 11.864 -9.91229 8.61403 -0.00580978 1.22056e-011 12.654 5.93474e-006 -1.90447e-005 0.267964 -6.1237 -7.49303 -80.8857 -6.37366 46.1354 14.7158 -1.90735e-006 1.90735e-006 70.3002 7.66027 -7.8815 19.0039 -1.68778 0.458955 -48.3867 27.2099 -32.7731 2.68902 -0.270441 0.785583 -41.1245 3.08521 -15.1314 21.1083 0.00190544 0.00234699 -2.81445 -2.51476 6.50605 27.642 0.00221062 0.00336075 -2.6992 -0.057589 -20.8745 0.267749 -6.12435 7.49307 -80.8857 6.37363 -46.1355 14.7158 4.26326e-014 0 61.4556 -8.24595 8.298 19.0859 0.00421142 0.00268459 -43.7274 -26.0799 31.8446 2.68906 -0.270012 -0.785648 -41.1245 -3.08519 15.1314 21.1083 0.00472831 -0.00273323 -2.81445 2.51476 -6.50605 27.642 0.00608062 -0.00378799 -2.69919 0.0575901 20.8745 7.59889 -1.4324 -5.90481e-008 -6.52811 -1.06659 0.152854 3.64806 -0.0026331 -5.96036e-008 7.017 0.0697462 -0.946579 3.32349 -0.00287008 1.36269e-012 1.41903 -0.301223 2.22824 4.63255 -0.57347 -1.48518e-009 1.83918 0.226487 2.33861 1.05389 2.23561 1.89592e-008 -97.6746 -0.0384216 -179.965 
0.037026 98.1837 1.18852e-006 -90.0003 -89.5272 -18.4932 -1.90735e-006 -5.42101e-020 0 -89.999 18.187 -89.999 -5.40139 -0.788189 4.45049e-008 -15.1853 0.654172 179.827 10.2263 -0.119101 3.69374 19.7794 81.4015 0.675488 15.0421 0.00709432 0.000825882 4.74146 -4.94268 19.3269 10.2296 -0.120474 -3.68431 -136.446 77.8817 158.266 15.0421 0.00710452 -0.000667572 -4.75933 4.99671 19.8457 2.92065 1.07788 -1.58704e-008 -6.00744 0.0532387 0.986277 6.42804e-009 5.7005e-006 -6.20578 -72.2337 -10.2377 -168.932 6.73248 -5.72205e-006 -1.19209e-007 -51.5859 -4.35258e-006 1.43956e-005 8.08523 0 1.78814e-007 70.5312 1.63026e-006 -2.05891e-006 8.9752 -2.13163e-014 -5.96046e-008 -64.387 10.4382 -6.40743 1.58766 -0.234975 -0.295145 156.395 -6.43712 172.35 3.03848 -1.19209e-007 0 -73.033 -0.00783601 0.00239504 1.65464 0.933669 1.02414 40.0717 45.7648 -25.5667 3.51775 1.19209e-007 -8.88178e-016 -5.96001 0.00214703 -0.020725 1.47313 1.01061 -1.16707 35.2874 -22.4016 21.5767 3.94896 3.55271e-015 -9.53674e-007 -4.75212 -0.000565994 0.0069178 1.07524 1.64226 0.0223624 22.1425 -4.62542 -4.22655 4.09656 -3.55271e-015 4.2608e-007 9.69053 0.00117255 0.00680698 2.04238 1.88276 -6.47347e-008 52.3393 -9.23989 10.617 -6.42791e-009 3.83625e-006 6.20578 -110.389 3.72882 178.742 6.73248 -1.90735e-006 0 -86.6345 3.33095e-007 2.31924e-007 8.08523 4.76837e-007 1.77636e-015 58.0377 5.32504e-006 -8.16213e-006 8.97519 7.10542e-015 -1.77636e-015 -66.6554 -4.79731 -0.0549414 1.65463 0.933701 -1.02419 28.2189 -48.6149 16.7501 3.51776 7.9936e-015 1.06581e-014 -3.68835 3.16074e-007 0.000136315 1.07524 1.6422 -0.0221231 23.203 -1.11576 3.42148 4.09656 4.76837e-007 2.38419e-007 -0.00384623 1.0349e-005 -7.17479e-007 1.58766 -0.234954 0.295133 161.54 6.18573 -179.851 3.03848 2.38418e-007 1.78814e-007 -61.5697 0.000860923 -0.000454593 1.47313 1.01055 1.1673 27.5981 17.1381 -7.84237 3.94897 -1.15463e-014 4.76837e-007 -3.09557 -9.65407e-007 5.74985e-007 2.04238 1.88276 -2.51202e-007 63.7923 11.9471 -9.98282 8.61403 -0.00580978 1.19182e-011 11.2154 6.41543e-006 -1.88911e-005 0.267952 -6.12368 -7.49303 -80.651 -6.03488 50.3378 14.7158 -1.90735e-006 1.90735e-006 65.2363 7.2646 -7.29949 19.0093 -1.59448 0.434414 -42.5375 25.183 -32.012 2.68902 -0.270441 0.785583 -42.4064 2.92366 -14.5833 21.1083 0.00190544 0.00234699 -2.82784 -2.51205 2.90623 27.642 0.00221062 0.00336075 -2.6979 -0.0588224 -21.2904 0.267736 -6.12435 7.49307 -80.651 6.03488 -50.3378 14.7158 7.81597e-014 0 55.43 -7.7834 7.59666 19.0859 0.00421142 0.00268459 -38.093 -24.0945 31.1738 2.68906 -0.270012 -0.785648 -42.4446 -2.93368 13.7555 21.1083 0.00472831 -0.00273323 -2.8313 2.51214 -2.90615 27.642 0.00608062 -0.00378799 -2.6979 0.0588187 21.2904 7.59889 -1.4324 -5.90069e-008 -9.35618 -1.00412 0.100071 3.64806 -0.0026331 -5.96034e-008 6.8268 0.0799344 -0.887476 3.32349 -0.00287008 1.65956e-012 0.885844 -0.287917 2.08897 4.63255 -0.57347 -1.13732e-009 4.0348 0.0752407 2.17567 1.05389 2.23561 2.05683e-008 -98.1188 -0.0377502 -179.966 
0.0579365 96.793 1.16422e-006 -90.0006 -89.5125 -19.5652 -1.90735e-006 -5.42101e-020 0 -89.999 18.1285 -89.999 -5.37145 -0.842832 4.44789e-008 -14.1674 0.723903 179.794 10.2263 -0.119101 3.69374 19.9353 81.4414 -0.824373 15.0421 0.00709432 0.000825882 4.7427 -4.92141 19.6356 10.2296 -0.120474 -3.68431 -136.346 77.8875 156.947 15.0421 0.00710452 -0.000667572 -4.76084 4.97928 20.1443 2.92223 1.07363 -1.55889e-008 -5.59129 0.0527752 0.926938 6.63634e-009 5.70049e-006 -6.20578 -74.4633 -10.7973 -168.951 6.73248 -5.72205e-006 -1.19209e-007 -53.7729 -4.93654e-006 1.42956e-005 8.08523 -1.42109e-014 1.78814e-007 71.6548 1.87539e-006 -1.98764e-006 8.9752 7.10543e-015 -5.96046e-008 -64.7777 10.4553 -7.13213 1.58766 -0.234975 -0.295145 156.279 -6.36964 172.112 3.03848 -1.19209e-007 -1.77636e-015 -72.9454 -0.00151713 0.000469551 1.65464 0.933669 1.02414 40.4868 45.5843 -25.8392 3.51775 1.19209e-007 -4.88498e-015 -4.71284 0.000786227 -0.00973921 1.47313 1.01061 -1.16707 35.6237 -22.2579 21.7796 3.94896 -1.06581e-014 -9.53674e-007 -3.50035 -0.000117371 0.00207224 1.07524 1.64226 0.0223624 22.4255 -4.64402 -4.19846 4.09656 1.77636e-015 4.2608e-007 11.3451 0.000146249 0.000678173 2.04238 1.88276 -6.75781e-008 52.598 -9.23038 10.7521 -6.63624e-009 3.83626e-006 6.20578 -111.203 4.07486 178.688 6.73248 -1.90735e-006 -2.66454e-015 -87.3123 3.53948e-007 2.38064e-007 8.08523 4.76837e-007 2.66454e-015 58.9147 5.17641e-006 -8.22406e-006 8.97519 0 -2.66454e-015 -66.5293 -4.90037 0.454846 1.65463 0.933701 -1.02419 28.6193 -48.4925 17.0247 3.51776 7.10542e-015 3.55271e-015 -3.15313 -0.000760042 0.0139622 1.07524 1.6422 -0.0221231 23.5614 -1.13544 3.44899 4.09656 4.76837e-007 2.38419e-007 0.666839 1.03442e-005 -8.37089e-007 1.58766 -0.234954 0.295133 161.386 6.18117 -179.834 3.03848 2.38418e-007 1.78814e-007 -61.5507 4.81238e-006 8.89594e-006 1.47313 1.01055 1.1673 27.9314 17.0413 -7.86952 3.94897 -5.32907e-015 4.76837e-007 -2.40981 -9.38592e-007 -3.39718e-007 2.04238 1.88276 -2.51032e-007 64.351 11.9459 -10.2185 8.61403 -0.00580978 1.15963e-011 9.75137 6.90024e-006 -1.87225e-005 0.267937 -6.12365 -7.49303 -79.7577 -4.14891 58.2339 14.7158 -1.90735e-006 1.90735e-006 58.8925 6.95806 -6.70612 19.02 -1.35383 0.367952 -37.3652 20.0738 -30.2966 2.68902 -0.270441 0.785583 -44.0368 2.72184 -13.1266 21.1083 0.00190544 0.00234699 -2.66196 -2.50367 -1.26185 27.642 0.00221062 0.00336075 -2.69935 -0.0582339 -21.6042 0.267716 -6.12436 7.49307 -79.7576 4.14891 -58.2339 14.7158 5.68434e-014 0 49.7689 -7.38395 6.86979 19.0859 0.00421142 0.00268459 -33.503 -19.112 29.656 2.68905 -0.270012 -0.785648 -44.1648 -2.74542 10.4303 21.1083 0.00472831 -0.00273323 -2.66196 2.50367 1.26184 27.642 0.00608062 -0.00378799 -2.69935 0.0582368 21.6042 7.59889 -1.4324 -5.89789e-008 -12.0278 -0.945103 0.058681 3.64807 -0.0026331 -5.96033e-008 6.71583 0.0880516 -0.832972 3.32349 -0.00287008 1.87295e-012 0.445383 -0.272194 1.96135 4.63255 -0.57347 -8.84323e-010 6.05092 -0.0350409 1.98761 1.05389 2.23561 2.17801e-008 -98.5543 -0.0370789 -179.967 
0.075221 95.4743 1.1487e-006 -90.0003 -89.5104 -20.5082 -1.90735e-006 -1.0842e-019 0 -89.999 18.0443 -89.999 -5.33905 -0.896177 4.4426e-008 -13.4186 0.793939 179.767 10.2263 -0.119101 3.69374 20.3896 81.4576 -2.87896 15.0421 0.00709432 0.000825882 4.74217 -4.90837 19.8127 10.2296 -0.120474 -3.68431 -136.591 77.9333 155.71 15.0421 0.00710452 -0.000667572 -4.75912 4.95936 20.3211 2.92384 1.06931 -1.59403e-008 -5.18513 0.0554139 0.863702 6.82989e-009 5.70055e-006 -6.20578 -76.8373 -11.3879 -168.981 6.73248 -5.72205e-006 -1.19209e-007 -55.9676 -5.50737e-006 1.41713e-005 8.08523 7.10543e-015 1.78814e-007 72.8367 1.52211e-006 -2.10356e-006 8.9752 1.42109e-014 -5.96047e-008 -65.1511 10.4601 -7.87267 1.58766 -0.234975 -0.295145 156.163 -6.301 171.871 3.03848 -1.19209e-007 -3.55271e-015 -72.3926 -0.00419378 0.00133497 1.65464 0.933669 1.02414 41.0082 45.3402 -26.1752 3.51775 1.19209e-007 -7.32747e-015 -3.45332 -0.000101089 0.00139762 1.47313 1.01061 -1.16707 36.1275 -22.0366 21.995 3.94896 -7.10543e-015 -9.53674e-007 -2.23619 0.000120128 -0.00282856 1.07524 1.64226 0.0223624 22.8511 -4.6719 -4.15659 4.09656 0 4.2608e-007 13.016 -0.00124337 -0.00542285 2.04238 1.88276 -7.04919e-008 52.8592 -9.22017 10.8886 -6.82977e-009 3.83619e-006 6.20578 -111.992 4.40809 178.61 6.73248 -1.90735e-006 -2.66454e-015 -87.8937 3.74841e-007 2.44232e-007 8.08523 4.76837e-007 2.66454e-015 59.9132 5.00849e-006 -8.29481e-006 8.97519 -1.42108e-014 -8.88179e-016 -66.3405 -5.00019 0.949312 1.65463 0.933701 -1.02419 29.3399 -48.2744 17.4895 3.51776 1.42108e-014 7.10543e-015 -2.61261 -0.0012659 0.0279423 1.07524 1.6422 -0.0221231 24.1459 -1.16404 3.48967 4.09656 4.76837e-007 2.38419e-007 1.34415 1.03391e-005 -9.59364e-007 1.58766 -0.234954 0.295133 161.048 6.13561 -179.82 3.03848 2.38418e-007 1.78814e-007 -61.0839 -3.88963e-006 1.36979e-005 1.47313 1.01055 1.1673 28.4707 16.8799 -7.90601 3.94897 7.10542e-015 4.76837e-007 -1.71725 -9.62774e-007 -3.23029e-007 2.04238 1.88276 -2.50904e-007 64.9154 11.9424 -10.4565 8.61403 -0.00580978 1.12244e-011 8.2745 7.38456e-006 -1.85399e-005 0.267926 -6.12363 -7.49304 -79.7179 -6.37322 68.1519 14.7158 -1.90735e-006 1.90735e-006 51.8653 6.72759 -6.0782 19.0357 -1.02484 0.277841 -32.4791 12.8842 -28.2846 2.68902 -0.270441 0.785583 -45.8644 2.49384 -10.9036 21.1083 0.00190544 0.00234699 -2.36819 -2.47774 -5.68645 27.642 0.00221062 0.00336075 -2.70012 -0.0562978 -21.8321 0.267693 -6.12435 7.49307 -79.7178 6.37323 -68.1519 14.7158 1.42109e-014 0 44.5414 -7.04008 6.10384 19.0859 0.00421142 0.00268459 -29.4761 -12.1217 27.8589 2.68905 -0.270012 -0.785648 -46.0753 -2.52658 6.05309 21.1083 0.00472831 -0.00273323 -2.36819 2.47774 5.68645 27.642 0.00608062 -0.00378799 -2.70012 0.0563046 21.8321 7.59889 -1.4324 -5.89685e-008 -14.5174 -0.883642 0.0178921 3.64807 -0.0026331 -5.96034e-008 6.66685 0.0947859 -0.781365 3.32349 -0.00287008 1.99485e-012 0.00058872 -0.255316 1.8326 4.63255 -0.57347 -7.03971e-010 7.93378 -0.120844 1.79629 1.05389 2.23561 2.25391e-008 -98.9941 -0.0364075 -179.967 
